<?xml version="1.0" encoding="UTF-8"?>
<svg xmlns="http://www.w3.org/2000/svg" version="1.0" viewBox="0 0 1280.515210 1171.267078" preserveAspectRatio="xMidYMid meet">
  <metadata>
For more coloring pages, please visit ColoringAll.com
</metadata>
  <g transform="translate(-0.167693,1171.031124) scale(0.100000,-0.100000)" fill="#000000" stroke="none">
    <path d="M5 11689 c28 -92 223 -482 340 -679 349 -589 842 -1129 1485 -1628 126 -98 206 -152 620 -421 88 -57 160 -107 160 -112 0 -4 -25 -69 -55 -144 -105 -260 -114 -299 -185 -780 -84 -573 -105 -658 -245 -971 -69 -154 -75 -173 -75 -233 1 -163 29 -260 135 -473 92 -184 171 -293 408 -557 77 -86 146 -166 154 -178 14 -20 9 -31 -62 -153 -202 -346 -292 -592 -324 -882 -14 -122 -14 -510 -1 -603 32 -223 155 -517 356 -854 71 -120 85 -150 81 -176 -3 -17 -50 -133 -106 -258 -209 -472 -234 -555 -235 -767 -1 -156 10 -201 80 -346 61 -125 110 -193 260 -356 71 -78 135 -149 141 -159 11 -15 0 -36 -81 -158 -178 -264 -245 -459 -185 -535 23 -30 73 -57 135 -76 40 -12 44 -11 144 40 132 68 357 218 538 359 105 81 157 115 195 126 34 10 170 22 402 35 192 11 433 27 535 36 294 24 398 28 495 15 209 -28 1220 -222 1236 -238 4 -4 -7 -51 -26 -103 -18 -52 -51 -146 -72 -208 l-38 -113 20 -37 c31 -57 111 -93 222 -99 l88 -5 82 43 c155 82 342 227 583 454 149 140 245 218 410 336 252 180 358 307 524 629 192 372 260 576 286 860 19 213 14 199 73 225 29 13 176 69 327 123 366 132 436 160 451 178 18 22 4 69 -98 324 -47 118 -86 231 -87 250 -1 33 2 37 54 62 30 15 172 79 315 141 341 149 409 184 413 217 2 14 -43 185 -98 380 -134 470 -150 529 -144 545 7 16 17 20 363 146 385 141 532 200 539 217 10 26 -15 117 -168 628 -172 568 -175 581 -160 600 14 16 131 55 775 255 1004 311 1748 570 1809 629 18 17 18 20 -4 86 -56 169 -165 406 -574 1249 -354 731 -459 938 -479 950 -29 17 -505 -232 -941 -493 -447 -267 -1083 -674 -1801 -1153 -457 -305 -571 -387 -582 -415 -8 -21 -30 13 820 -1279 352 -534 448 -687 445 -704 -4 -18 -47 -36 -478 -201 -173 -66 -340 -133 -370 -148 -49 -24 -55 -30 -54 -57 1 -16 61 -181 134 -365 174 -441 240 -615 240 -633 0 -17 -74 -61 -365 -217 -104 -56 -196 -108 -204 -115 -18 -17 -11 -34 124 -340 54 -121 106 -242 116 -270 18 -50 18 -50 -4 -69 -46 -38 -340 -176 -377 -176 -23 0 -20 -11 -75 265 -25 127 -100 464 -166 750 -341 1474 -452 2083 -584 3210 -104 894 -117 955 -270 1335 -47 117 -85 222 -83 234 3 23 -12 17 403 131 244 67 585 182 770 261 503 213 1078 564 1450 884 210 181 665 674 665 721 0 13 -98 11 -490 -11 -648 -37 -719 -44 -1000 -101 -828 -170 -1504 -446 -2250 -919 -224 -142 -278 -170 -326 -170 -21 0 -110 29 -212 69 -354 138 -583 199 -912 242 -289 38 -769 35 -1090 -7 -178 -23 -480 -105 -820 -224 -80 -27 -152 -50 -161 -50 -9 0 -79 69 -155 153 -171 189 -576 594 -749 748 -446 398 -965 738 -1495 980 -310 141 -746 305 -844 316 -47 6 -48 6 -41 -18z m1133 -456 c651 -364 1129 -728 1652 -1260 274 -278 440 -473 440 -517 0 -22 7 -21 120 24 264 105 575 194 928 265 l133 26 487 -4 c477 -4 489 -4 607 -30 278 -59 538 -135 750 -219 160 -63 225 -105 195 -123 -14 -8 -12 -25 1 -25 7 0 69 40 138 88 352 248 899 553 1268 710 368 155 1109 365 1442 408 77 10 82 1 65 -123 -27 -194 -80 -341 -231 -633 -161 -314 -235 -442 -283 -491 -56 -56 -210 -133 -495 -247 -336 -134 -530 -191 -1030 -302 -148 -33 -280 -62 -292 -65 -48 -11 -20 -25 52 -25 100 0 120 -11 155 -84 45 -97 104 -251 148 -388 79 -245 118 -468 177 -988 91 -813 151 -1213 281 -1890 30 -157 58 -315 61 -351 l6 -65 -99 -41 c-55 -23 -153 -62 -219 -88 -259 -102 -304 -141 -260 -225 19 -38 86 -91 160 -128 82 -41 192 -74 369 -112 175 -37 191 -43 206 -69 12 -23 106 -420 200 -845 57 -259 60 -279 45 -296 -9 -10 -98 -53 -198 -95 -370 -157 -424 -200 -368 -292 20 -32 78 -76 146 -110 59 -30 181 -67 353 -108 l152 -37 0 -49 c0 -159 -45 -387 -114 -574 -58 -156 -216 -467 -304 -601 -95 -142 -215 -274 -327 -357 -92 -68 -281 -163 -410 -206 -143 -48 -237 -55 -665 -56 -357 0 -393 2 -490 22 -854 177 -1094 213 -1436 213 -169 0 -182 -18 -29 -37 l60 -7 -45 -7 c-206 -32 -1080 -36 -1230 -5 -41 8 -86 15 -100 15 -23 -1 -22 -2 10 -16 19 -8 83 -28 143 -43 60 -16 112 -31 114 -34 13 -12 -13 -39 -114 -121 -219 -176 -596 -406 -623 -379 -14 14 26 88 96 182 61 81 75 107 53 100 -8 -2 -42 -40 -77 -84 -116 -146 -150 -181 -161 -164 -23 33 11 126 91 257 28 46 48 87 44 91 -13 12 -71 -65 -132 -175 -80 -144 -92 -136 -36 22 34 97 69 163 149 285 76 115 130 170 168 170 14 0 25 3 25 8 0 4 -36 39 -81 77 -129 111 -274 269 -344 374 -121 181 -140 252 -132 483 5 171 16 220 90 403 55 137 234 527 249 540 13 13 55 -36 113 -130 l43 -70 108 3 c91 3 117 8 156 28 40 20 56 23 105 18 52 -6 63 -4 97 20 26 17 52 26 78 26 58 0 75 14 92 73 15 52 40 84 83 106 33 17 41 62 54 321 14 274 7 611 -16 760 -19 131 -67 326 -107 439 -38 107 -98 241 -109 241 -9 0 5 -50 66 -241 140 -431 154 -586 121 -1333 -6 -136 -17 -166 -57 -166 -24 0 -54 -44 -71 -105 l-14 -50 -59 -6 c-33 -3 -78 -16 -100 -27 -22 -13 -57 -22 -81 -22 -24 0 -55 -5 -71 -11 -15 -7 -64 -15 -108 -20 -44 -5 -94 -11 -111 -15 -29 -5 -33 -2 -57 39 -14 24 -70 104 -124 178 -235 323 -368 586 -455 903 -27 100 -31 130 -35 296 -9 307 22 561 94 783 60 186 284 607 323 607 8 0 111 -79 228 -175 236 -193 232 -190 232 -176 0 5 -69 72 -153 149 -292 267 -648 634 -744 770 l-45 62 56 113 c86 170 105 307 71 513 -25 157 -60 252 -133 362 -44 66 -45 103 -9 258 30 123 53 262 97 579 66 467 137 718 269 943 23 39 84 128 136 198 144 194 116 179 -83 -44 -48 -53 -81 -82 -94 -82 -34 0 -220 103 -403 224 -321 212 -613 447 -953 766 l-103 97 -50 169 c-104 353 -144 563 -156 819 -6 142 9 315 28 315 5 0 71 -35 147 -77z m10594 -1760 c23 -26 107 -197 471 -960 465 -971 538 -1133 552 -1219 l6 -42 -78 -32 c-228 -95 -1287 -447 -2122 -705 -435 -134 -415 -126 -407 -169 4 -18 71 -250 151 -514 205 -684 205 -685 153 -710 -14 -7 -194 -72 -400 -146 -206 -73 -396 -143 -422 -155 l-48 -21 5 -52 c3 -29 12 -84 21 -123 20 -90 33 -265 19 -265 -6 0 -32 25 -59 56 -44 52 -49 55 -61 38 -7 -10 -13 -39 -13 -65 0 -66 -16 -71 -61 -18 l-38 44 -15 -36 c-8 -19 -18 -47 -21 -62 -4 -15 -11 -27 -15 -27 -5 0 -34 29 -65 65 -57 65 -85 80 -85 48 0 -10 21 -104 47 -209 25 -105 44 -198 40 -207 -3 -9 -28 -20 -62 -27 -73 -15 -178 -30 -183 -26 -1 2 33 26 78 55 44 28 80 57 80 65 0 27 -62 190 -227 599 -125 312 -162 412 -153 422 17 20 169 84 502 211 345 132 418 162 418 177 0 21 -89 161 -483 757 -642 971 -809 1229 -804 1244 6 20 973 663 1582 1051 592 378 938 587 1290 780 149 82 372 195 386 195 3 0 13 -8 21 -17z m-9402 -2528 c58 -121 75 -211 75 -400 0 -187 -14 -250 -78 -348 -48 -75 -43 -79 -126 117 -114 271 -132 365 -91 486 27 82 95 228 117 252 16 18 17 17 41 -4 13 -13 41 -59 62 -103z m5605 -2127 c15 -37 95 -395 95 -426 0 -27 -28 -32 -108 -21 -260 37 -485 129 -533 218 -23 43 -16 57 41 86 105 53 433 174 473 175 11 0 23 -13 32 -32z m394 -1782 c16 -19 40 -231 44 -372 l2 -109 -45 3 c-96 6 -418 105 -482 147 -21 14 -45 36 -54 51 -16 24 -16 27 3 51 10 15 46 42 79 60 90 50 395 178 435 182 4 1 12 -5 18 -13z m-1039 -2388 c0 -16 -210 -227 -311 -313 -136 -114 -439 -304 -469 -293 -11 4 29 84 111 224 32 55 59 106 59 113 0 26 -33 -13 -108 -129 -109 -168 -137 -200 -174 -200 -28 0 -30 2 -25 28 3 15 37 103 76 195 39 92 71 169 71 172 0 3 -4 5 -9 5 -5 0 -45 -71 -90 -157 -45 -87 -90 -169 -101 -183 -18 -23 -20 -24 -36 -9 -32 33 -15 105 85 362 l43 107 111 0 c216 0 599 40 707 74 57 18 60 19 60 4z M2918 7997 c-95 -27 -167 -95 -229 -217 -34 -65 -34 -66 -34 -205 0 -136 1 -141 30 -194 77 -139 235 -203 384 -154 142 45 211 183 211 424 0 167 -31 253 -109 306 -64 43 -177 61 -253 40z m232 -76 c40 -28 60 -78 60 -152 0 -193 -185 -260 -261 -94 -71 154 76 335 201 246z M5664 7961 c-102 -25 -204 -115 -242 -216 -74 -192 -44 -343 97 -488 99 -103 138 -120 291 -125 173 -6 198 2 286 91 43 44 82 95 100 132 27 56 29 68 29 180 l0 120 -39 73 c-62 116 -161 193 -293 227 -60 16 -175 18 -229 6z m114 -78 c34 -25 69 -86 78 -136 15 -92 -56 -203 -146 -227 -115 -31 -217 29 -244 142 -17 73 54 190 139 230 51 24 134 20 173 -9z M3844 7019 c-9 -16 25 -57 67 -82 l37 -21 51 23 c65 31 102 68 81 81 -22 14 -227 13 -236 -1z M6299 6880 c-70 -21 -174 -87 -238 -151 -305 -305 -187 -774 229 -915 87 -30 245 -25 333 9 227 88 367 286 367 519 0 255 -204 498 -450 537 -75 12 -203 13 -241 1z m323 -69 c130 -50 246 -174 296 -314 32 -94 34 -211 3 -308 -38 -119 -134 -239 -230 -289 -87 -44 -256 -69 -351 -50 -167 32 -323 171 -381 341 -18 54 -20 80 -17 171 4 102 7 112 46 191 62 126 150 209 279 263 53 23 68 24 178 21 93 -3 133 -9 177 -26z M3390 6544 c0 -25 99 -122 137 -135 55 -18 128 -5 243 42 165 67 173 66 400 -31 164 -70 198 -82 234 -78 47 6 239 96 244 116 6 20 -21 14 -128 -29 -133 -53 -152 -51 -340 33 -80 36 -168 74 -195 83 l-50 18 -115 -47 c-169 -70 -218 -83 -268 -68 -23 7 -65 34 -95 62 -59 54 -67 58 -67 34z M5814 4788 c-375 -380 -633 -857 -733 -1354 -12 -55 -28 -175 -36 -265 -19 -198 -22 -219 -47 -287 -23 -62 -18 -93 18 -116 14 -10 71 -62 126 -117 56 -55 112 -102 125 -104 13 -3 34 -7 47 -10 13 -3 40 -22 60 -42 33 -34 42 -38 106 -44 46 -4 77 -12 90 -24 30 -27 69 -14 195 64 60 37 191 116 290 175 312 185 495 338 699 582 171 205 396 529 396 571 0 32 -29 2 -107 -113 -214 -308 -271 -381 -418 -532 -229 -235 -364 -338 -745 -565 -107 -64 -208 -125 -224 -136 -28 -18 -32 -19 -65 -5 -20 9 -63 20 -95 24 -50 8 -66 15 -100 49 -34 33 -49 41 -79 41 -31 0 -47 9 -96 54 -108 99 -191 186 -191 200 0 7 7 32 15 55 8 23 21 106 30 184 49 454 98 633 261 958 147 295 282 490 520 753 52 57 94 107 94 110 0 22 -39 -9 -136 -106z M11231 230 c-18 -85 -24 -135 -15 -127 12 11 43 177 33 177 -4 0 -12 -22 -18 -50z M11540 270 c0 -5 5 -10 10 -10 6 0 10 5 10 10 0 6 -4 10 -10 10 -5 0 -10 -4 -10 -10z M12091 230 c-18 -85 -24 -135 -15 -127 12 11 43 177 33 177 -4 0 -12 -22 -18 -50z M12151 203 c-7 -42 -15 -82 -18 -90 -3 -7 -1 -13 5 -13 5 0 17 37 26 83 19 95 19 97 8 97 -4 0 -14 -34 -21 -77z M10931 243 c-63 -59 -40 -143 38 -143 20 0 46 7 57 16 18 14 18 15 -6 7 -64 -19 -110 0 -110 48 0 61 63 98 130 75 22 -8 23 -7 11 8 -22 27 -85 21 -120 -11z M11926 185 c-31 -47 -52 -85 -46 -85 5 0 17 11 26 25 15 23 23 26 63 23 39 -3 46 -6 49 -25 2 -13 8 -23 13 -23 11 0 11 6 0 50 -6 19 -15 54 -21 78 -6 23 -14 42 -19 42 -4 0 -33 -38 -65 -85z m80 -22 c-2 -3 -20 -3 -40 -1 l-35 3 27 42 27 43 12 -42 c7 -23 11 -43 9 -45z M11083 215 c-50 -35 -31 -115 27 -115 17 0 39 9 50 20 22 22 27 79 8 98 -16 16 -59 15 -85 -3z m68 -5 c25 -14 25 -54 -1 -80 -23 -23 -33 -24 -61 -10 -25 14 -25 54 1 80 23 23 33 24 61 10z M11293 215 c-50 -35 -31 -115 27 -115 17 0 39 9 50 20 22 22 27 79 8 98 -16 16 -59 15 -85 -3z m68 -5 c25 -14 25 -54 -1 -80 -23 -23 -33 -24 -61 -10 -25 14 -25 54 1 80 23 23 33 24 61 10z M11430 173 c-12 -56 -8 -100 5 -48 13 57 26 83 48 93 20 9 19 10 -10 9 -31 0 -33 -2 -43 -54z M11526 183 c-4 -27 -9 -56 -12 -65 -3 -10 -1 -18 4 -18 5 0 14 26 21 57 13 68 13 73 2 73 -5 0 -12 -21 -15 -47z M11585 181 c-3 -25 -8 -54 -11 -63 -3 -10 -1 -18 4 -18 6 0 14 21 18 47 7 36 15 51 36 63 25 13 29 13 43 -1 13 -13 14 -24 6 -60 -9 -41 -8 -59 5 -47 3 3 8 31 11 61 5 53 4 56 -18 61 -13 3 -38 4 -56 4 -29 -1 -32 -4 -38 -47z M11763 215 c-30 -21 -38 -62 -17 -92 14 -22 21 -25 55 -20 45 6 50 -5 14 -29 -20 -13 -31 -14 -55 -6 -30 11 -44 -1 -14 -12 30 -12 71 -6 87 12 9 10 23 49 31 87 14 68 13 93 -3 66 -6 -9 -11 -10 -15 -2 -10 16 -58 14 -83 -4z m68 -5 c25 -14 25 -54 -1 -80 -23 -23 -33 -24 -61 -10 -25 14 -25 54 1 80 23 23 33 24 61 10z M12263 215 c-47 -33 -32 -115 21 -115 31 0 56 10 56 21 0 5 -11 4 -24 -2 -55 -25 -89 38 -45 82 20 20 31 21 74 3 18 -7 18 -6 6 9 -17 21 -59 22 -88 2z M12393 215 c-50 -35 -31 -115 27 -115 17 0 39 9 50 20 22 22 27 79 8 98 -16 16 -59 15 -85 -3z m68 -5 c25 -14 25 -54 -1 -80 -23 -23 -33 -24 -61 -10 -25 14 -25 54 1 80 23 23 33 24 61 10z M12530 178 c-5 -27 -10 -57 -10 -66 1 -27 16 5 24 51 9 47 47 71 72 45 13 -13 14 -24 6 -62 -5 -25 -6 -46 -1 -46 5 0 12 19 15 42 7 43 33 78 59 78 23 0 33 -29 23 -73 -5 -22 -6 -42 -3 -45 10 -11 15 6 18 58 3 64 -15 81 -63 63 -18 -7 -32 -7 -36 -2 -3 5 -25 8 -49 7 l-44 -1 -11 -49z M12180 110 c0 -5 5 -10 10 -10 6 0 10 5 10 10 0 6 -4 10 -10 10 -5 0 -10 -4 -10 -10z"></path>
  </g>
</svg>
